<svg xmlns="http://www.w3.org/2000/svg" width="63.333" height="63.334" viewBox="0 0 63.333 63.334">
  <g id="Cart_icon" transform="translate(9.204 12.538)">
    <g id="Group_18" data-name="Group 18" transform="translate(-3.886 -4.518)">
      <rect id="canvas_background" width="52" height="48" transform="translate(0.349 -0.353)" fill="none"/>
    </g>
    <g id="Group_19" data-name="Group 19" transform="translate(-9.204 -12.538)">
      <path id="svg_2" d="M32.8,64.462A31.667,31.667,0,1,1,64.462,32.795,31.666,31.666,0,0,1,32.8,64.462" transform="translate(-1.129 -1.128)" fill="#e9e2c1" fill-rule="evenodd"/>
      <path id="svg_3" d="M41.516,27.236a.692.692,0,0,1-.081.2L35.5,37.285H47.534L41.6,27.438a.675.675,0,0,1-.08-.2m-.649-1.388a1.2,1.2,0,0,1,.493.493,1.205,1.205,0,0,1,.339.27.678.678,0,0,0-.184.335.675.675,0,0,0-.31-.434.645.645,0,0,0-.2-.08v-.024A1.186,1.186,0,0,0,40.868,25.848ZM39.6,27.865a1.194,1.194,0,0,1-.349-.4,1.192,1.192,0,0,0,.508.139l-.159.263ZM58.051,38.083l13.322,13.3A31.687,31.687,0,0,1,44.1,72.375L28.01,56.269a3.4,3.4,0,0,0,2.209.8H52.814a3.417,3.417,0,0,0,2.416-.992.466.466,0,0,0,.043-.04A4.471,4.471,0,0,0,56.49,53.5l0-.024L58.36,39.547c0-.015.005-.031.007-.047a2.521,2.521,0,0,0,.018-.3ZM44.273,25.848,55.766,37.285H49.109L43.272,27.6c.634-.028,1.3-.571,1.14-1.194Z" transform="translate(-9.849 -9.147)" fill="#c6ba83" fill-rule="evenodd"/>
      <line id="svg_4" x2="7.43" stroke-width="2" transform="translate(39.196 28.845)" stroke="#fff" stroke-linecap="round" stroke-linejoin="round" stroke-miterlimit="2.613" fill="none"/>
      <path id="svg_5" d="M70.142,43.822a1.183,1.183,0,0,1,1.22,1.467" transform="translate(-23.516 -14.977)" fill="none" stroke="#fff" stroke-linecap="round" stroke-linejoin="round" stroke-miterlimit="2.613" stroke-width="2"/>
      <line id="svg_6" x1="1.87" y2="13.956" stroke-width="2" transform="translate(45.976 30.312)" stroke="#fff" stroke-linecap="round" stroke-linejoin="round" stroke-miterlimit="2.613" fill="none"/>
      <path id="svg_7" d="M67.733,66.65a3.2,3.2,0,0,1-3.012,3.013" transform="translate(-21.757 -22.382)" fill="none" stroke="#fff" stroke-linecap="round" stroke-linejoin="round" stroke-miterlimit="2.613" stroke-width="2"/>
      <path id="svg_8" d="M53.873,71.109H31.278" transform="translate(-10.909 -23.829)" fill="none" stroke="#fff" stroke-linecap="round" stroke-linejoin="round" stroke-miterlimit="2.613" stroke-width="2"/>
      <path id="svg_9" d="M29.832,69.663A3.2,3.2,0,0,1,26.82,66.65" transform="translate(-9.463 -22.382)" fill="none" stroke="#fff" stroke-linecap="round" stroke-linejoin="round" stroke-miterlimit="2.613" stroke-width="2"/>
      <line id="svg_10" x1="1.87" y1="13.956" stroke-width="2" transform="translate(15.487 30.312)" stroke="#fff" stroke-linecap="round" stroke-linejoin="round" stroke-miterlimit="2.613" fill="none"/>
      <path id="svg_11" d="M24.046,45.289a1.184,1.184,0,0,1,1.221-1.467" transform="translate(-8.559 -14.977)" fill="none" stroke="#fff" stroke-linecap="round" stroke-linejoin="round" stroke-miterlimit="2.613" stroke-width="2"/>
      <line id="svg_12" x2="7.598" stroke-width="2" transform="translate(16.707 28.845)" stroke="#fff" stroke-linecap="round" stroke-linejoin="round" stroke-miterlimit="2.613" fill="none"/>
      <line id="svg_13" x1="5.681" stroke-width="2" transform="translate(31.667 28.845)" stroke="#fff" stroke-linecap="round" stroke-linejoin="round" stroke-miterlimit="2.613" fill="none"/>
      <line id="svg_14" x2="14.149" stroke-width="2" transform="translate(24.568 28.845)" stroke="#fff" stroke-linecap="round" stroke-linejoin="round" stroke-miterlimit="2.613" fill="none"/>
      <line id="svg_15" x1="8.133" y1="13.489" stroke-width="2" transform="translate(32.326 17.974)" stroke="#fff" stroke-linecap="round" stroke-linejoin="round" stroke-miterlimit="2.613" fill="none"/>
      <path id="svg_16" d="M50.246,24.935a1.238,1.238,0,1,0,.876,1.516,1.239,1.239,0,0,0-.876-1.516" transform="translate(-16.556 -8.837)" fill="none" stroke="#fff" stroke-miterlimit="2.613" stroke-width="2"/>
      <line id="svg_17" y1="13.488" x2="8.134" stroke-width="2" transform="translate(22.874 17.975)" stroke="#fff" stroke-linecap="round" stroke-linejoin="round" stroke-miterlimit="2.613" fill="none"/>
      <path id="svg_18" d="M44.565,24.934a1.239,1.239,0,1,1-.876,1.517,1.238,1.238,0,0,1,.876-1.517" transform="translate(-14.921 -8.836)" fill="none" stroke="#fff" stroke-miterlimit="2.613" stroke-width="2"/>
      <line id="svg_19" y2="9.492" stroke-width="2" transform="translate(24.015 34.679)" stroke="#fff" stroke-linecap="round" stroke-linejoin="round" stroke-miterlimit="2.613" fill="none"/>
      <line id="svg_20" y2="12.219" stroke-width="2" transform="translate(27.84 31.953)" stroke="#fff" stroke-linecap="round" stroke-linejoin="round" stroke-miterlimit="2.613" fill="none"/>
      <line id="svg_21" y2="12.219" stroke-width="2" transform="translate(31.665 31.953)" stroke="#fff" stroke-linecap="round" stroke-linejoin="round" stroke-miterlimit="2.613" fill="none"/>
      <line id="svg_22" y2="12.219" stroke-width="2" transform="translate(35.49 31.953)" stroke="#fff" stroke-linecap="round" stroke-linejoin="round" stroke-miterlimit="2.613" fill="none"/>
      <line id="svg_23" y2="9.492" stroke-width="2" transform="translate(39.315 34.679)" stroke="#fff" stroke-linecap="round" stroke-linejoin="round" stroke-miterlimit="2.613" fill="none"/>
      <line id="svg_24" x1="0.47" y2="9.493" stroke-width="2" transform="translate(42.673 34.679)" stroke="#fff" stroke-linecap="round" stroke-linejoin="round" stroke-miterlimit="2.613" fill="none"/>
      <line id="svg_25" x2="0.581" y2="9.493" stroke-width="2" transform="translate(20.189 34.679)" stroke="#fff" stroke-linecap="round" stroke-linejoin="round" stroke-miterlimit="2.613" fill="none"/>
    </g>
  </g>
</svg>
