<svg id="Instagram" xmlns="http://www.w3.org/2000/svg" width="38.919" height="38.919" viewBox="0 0 38.919 38.919">
  <path id="Path_3" data-name="Path 3" d="M19.459,3.459a59.667,59.667,0,0,1,7.784.216,10.028,10.028,0,0,1,3.676.649A7.593,7.593,0,0,1,34.595,8a10.028,10.028,0,0,1,.649,3.676c0,1.946.216,2.595.216,7.784a59.667,59.667,0,0,1-.216,7.784,10.028,10.028,0,0,1-.649,3.676,7.593,7.593,0,0,1-3.676,3.676,10.028,10.028,0,0,1-3.676.649c-1.946,0-2.595.216-7.784.216a59.667,59.667,0,0,1-7.784-.216A10.028,10.028,0,0,1,8,34.595a7.593,7.593,0,0,1-3.676-3.676,10.028,10.028,0,0,1-.649-3.676c0-1.946-.216-2.595-.216-7.784a59.667,59.667,0,0,1,.216-7.784A10.028,10.028,0,0,1,4.324,8,7.766,7.766,0,0,1,5.838,5.838,3.656,3.656,0,0,1,8,4.324a10.028,10.028,0,0,1,3.676-.649,59.667,59.667,0,0,1,7.784-.216m0-3.459a63.886,63.886,0,0,0-8,.216A13.348,13.348,0,0,0,6.7,1.081,8.464,8.464,0,0,0,3.243,3.243,8.464,8.464,0,0,0,1.081,6.7a9.852,9.852,0,0,0-.865,4.757,63.886,63.886,0,0,0-.216,8,63.886,63.886,0,0,0,.216,8,13.348,13.348,0,0,0,.865,4.757,8.464,8.464,0,0,0,2.162,3.459A8.464,8.464,0,0,0,6.7,37.838a13.348,13.348,0,0,0,4.757.865,63.886,63.886,0,0,0,8,.216,63.886,63.886,0,0,0,8-.216,13.348,13.348,0,0,0,4.757-.865,9.071,9.071,0,0,0,5.622-5.622,13.348,13.348,0,0,0,.865-4.757c0-2.162.216-2.811.216-8a63.886,63.886,0,0,0-.216-8A13.348,13.348,0,0,0,37.838,6.7a8.464,8.464,0,0,0-2.162-3.459,8.464,8.464,0,0,0-3.459-2.162A13.348,13.348,0,0,0,27.459.216a63.886,63.886,0,0,0-8-.216m0,9.514a9.786,9.786,0,0,0-9.946,9.946,9.946,9.946,0,1,0,9.946-9.946m0,16.432a6.371,6.371,0,0,1-6.486-6.486,6.371,6.371,0,0,1,6.486-6.486,6.371,6.371,0,0,1,6.486,6.486,6.371,6.371,0,0,1-6.486,6.486M29.838,6.7a2.378,2.378,0,1,0,2.378,2.378A2.4,2.4,0,0,0,29.838,6.7" fill="#fff" fill-rule="evenodd"/>
</svg>
