<svg xmlns="http://www.w3.org/2000/svg" width="110.092" height="78.785" viewBox="0 0 110.092 78.785">
  <g id="logo" transform="translate(-311.008 -214.595)">
    <g id="Rectangle_181" data-name="Rectangle 181" transform="translate(313.655 221.612)" fill="#1a1818" stroke="#fff" stroke-miterlimit="10" stroke-width="15.636">
      <rect width="104.273" height="65.016" stroke="none"/>
      <rect x="7.818" y="7.818" width="88.637" height="49.381" fill="none"/>
    </g>
    <g id="Group_6" data-name="Group 6" transform="translate(313.655 226.95)">
      <path id="Path_108" data-name="Path 108" d="M361.081,278.656h-2.329c-.518,5.275-2.009,7.029-4.733,9.563s-7.749,2.62-14.811,2.62H326.742v-23.9h5.525q5.114,0,7.6,2.008t2.854,8.323H345.1V255.132h-2.375q-.229,4.561-1.85,6.7a6.565,6.565,0,0,1-3.653,2.631,21.545,21.545,0,0,1-4.955.487h-5.525V242.541h13.015q8.63,0,12.329,2.807c2.465,1.871,4.094,13.492,4.886,17.728h4.11V240.553H316.57c.531,17.534.8,34.929.056,52.274h44.248Z" transform="translate(-316.57 -240.553)" fill="#fff"/>
    </g>
    <g id="Group_7" data-name="Group 7" transform="translate(372.106 227.935)">
      <path id="Path_109" data-name="Path 109" d="M480.485,243.22l.3,13.009h-2.328c-3.3-7.8-10.56-11.7-18.915-11.7q-6.937,0-10.774,2.9t-3.84,6q0,2.879,3.2,4.9t11.667,3.122a65.617,65.617,0,0,1,12.905,2.692,16.942,16.942,0,0,1,7.481,5.29,12.975,12.975,0,0,1,3.046,8.486q0,7.365-6.365,12.261t-15.778,4.9a30.916,30.916,0,0,1-15.308-4.3l-4.656,3.14h-1.734V279.893h2.13a21.756,21.756,0,0,0,8.174,9.943,21.053,21.053,0,0,0,11.493,3.327,21.805,21.805,0,0,0,11.37-3.084q5.176-3.083,5.177-7.794a8.1,8.1,0,0,0-3.592-6.672q-3.593-2.71-11.642-3.739a74.582,74.582,0,0,1-12.36-2.392,16.559,16.559,0,0,1-7.382-4.748,10.9,10.9,0,0,1-3.071-7.5q0-5.682,5.35-10.149t14.515-4.467a29.16,29.16,0,0,1,14.317,3.663c1.222-.872,3.707-1.894,4.6-3.066Z" transform="translate(-439.376 -242.622)" fill="#fff"/>
    </g>
    <path id="Path_110" data-name="Path 110" d="M478.175,327.447v15.865l-43.009-1.244,4.925-6.688,2.627-2.022,5.91,3.733L458.8,340.2l8.208-3.111,8.865-5.911Z" transform="translate(-65.064 -59.139)" fill="#fff"/>
    <path id="Path_111" data-name="Path 111" d="M480.66,234.637H439.908v18.068c.327,2.251.535.184.722-.03l10.021-12.1,15.171-1.148,10.685,3.51Z" transform="translate(-67.549 -10.503)" fill="#fff"/>
    <g id="Rectangle_182" data-name="Rectangle 182" transform="translate(311.008 217.591)" fill="none" stroke="#fff" stroke-miterlimit="10" stroke-width="1">
      <rect width="110.092" height="73.125" stroke="none"/>
      <rect x="0.5" y="0.5" width="109.092" height="72.125" fill="none"/>
    </g>
    <g id="Group_8" data-name="Group 8" transform="translate(351.104 214.595)">
      <path id="Path_112" data-name="Path 112" d="M413.595,214.6H395.251v4.828h.185l5.929,4.544h12.229l5.929-4.544h.185V214.6Z" transform="translate(-395.251 -214.595)" fill="#c79c19"/>
      <path id="Path_113" data-name="Path 113" d="M414.385,215.653H398.012v3.808h.165l5.292,3.584h10.915l5.292-3.584h.165v-3.808Z" transform="translate(-396.698 -215.15)" fill="#ebd585" opacity="0.44"/>
    </g>
    <g id="Group_9" data-name="Group 9" transform="translate(351.104 284.007)">
      <path id="Path_114" data-name="Path 114" d="M401.366,369.8h18.344v-4.828h-.185l-5.929-4.544H401.366l-5.929,4.544h-.185V369.8Z" transform="translate(-395.251 -360.431)" fill="#c79c19"/>
      <path id="Path_115" data-name="Path 115" d="M403.47,370.928h16.372V367.12h-.165l-5.292-3.584H403.47l-5.292,3.584h-.165v3.808Z" transform="translate(-396.698 -362.059)" fill="#ebd585" opacity="0.44"/>
    </g>
  </g>
</svg>
