<svg xmlns="http://www.w3.org/2000/svg" width="37.9" height="37.9" viewBox="0 0 37.9 37.9">
  <g id="Symbol_62_2" data-name="Symbol 62 – 2" style="mix-blend-mode: lighten;isolation: isolate">
    <path id="Path_99" data-name="Path 99" d="M37.9,34.563,30.034,26.7a16.32,16.32,0,0,0,3.337-10.011A16.583,16.583,0,0,0,16.686,0,16.583,16.583,0,0,0,0,16.686,16.583,16.583,0,0,0,16.686,33.371,16.32,16.32,0,0,0,26.7,30.034L34.563,37.9ZM4.767,16.686A11.8,11.8,0,0,1,16.686,4.767,11.8,11.8,0,0,1,28.6,16.686,11.8,11.8,0,0,1,16.686,28.6,11.8,11.8,0,0,1,4.767,16.686Z" fill="#fff"/>
  </g>
</svg>
