<svg id="Twitter" xmlns="http://www.w3.org/2000/svg" width="48.649" height="39.459" viewBox="0 0 48.649 39.459">
  <path id="Path_2" data-name="Path 2" d="M53.405,41.459c18.378,0,28.378-15.135,28.378-28.378V11.73a21.969,21.969,0,0,0,4.865-5.135,22.436,22.436,0,0,1-5.676,1.622A10.515,10.515,0,0,0,85.3,2.811a24.79,24.79,0,0,1-6.216,2.432A9.652,9.652,0,0,0,71.784,2a10.154,10.154,0,0,0-10,10,5.269,5.269,0,0,0,.27,2.162A27.943,27.943,0,0,1,41.514,3.622a10.35,10.35,0,0,0-1.351,5.135,10.738,10.738,0,0,0,4.324,8.378,9.111,9.111,0,0,1-4.595-1.351h0A9.877,9.877,0,0,0,48,25.514a8.332,8.332,0,0,1-2.7.27,4.6,4.6,0,0,1-1.892-.27,10.239,10.239,0,0,0,9.459,7.027,20.406,20.406,0,0,1-12.432,4.324A7.483,7.483,0,0,1,38,36.595a25.51,25.51,0,0,0,15.405,4.865" transform="translate(-38 -2)" fill="#fff" fill-rule="evenodd"/>
</svg>
